<svg xmlns="http://www.w3.org/2000/svg" viewBox="0 0 400 533" width="400" height="533" role="img">
  <defs>
    <linearGradient id="drapecl4c1x" x1="0" y1="0" x2="1" y2="0.3">
      <stop offset="0" stop-color="#a6a29b" stop-opacity=".5"/>
      <stop offset=".38" stop-color="#f3efe9" stop-opacity=".25"/>
      <stop offset=".62" stop-color="#ccc7be" stop-opacity=".3"/>
      <stop offset="1" stop-color="#9c9892" stop-opacity=".55"/>
    </linearGradient>
    <filter id="softcl4c1x" x="-20%" y="-20%" width="140%" height="140%">
      <feGaussianBlur stdDeviation="9"/>
      <feColorMatrix values="0 0 0 0 0.17 0 0 0 0 0.17 0 0 0 0 0.17 0 0 0 .3 0"/>
      <feOffset dy="10"/>
    </filter>
    
    <filter id="wcl4c1x" x="0" y="0" width="100%" height="100%">
      <feTurbulence type="fractalNoise" baseFrequency="0.9 0.55" numOctaves="2" seed="7"/>
      <feColorMatrix type="saturate" values="0"/>
    </filter>
  </defs>
  
      <rect width="400" height="533" fill="#F5F0EB"/>
      <ellipse cx="200" cy="474" rx="122" ry="22" fill="#ddd8d4" opacity=".55"/>
      <g filter="url(#softcl4c1x)">
    <path d="M200 92 L124 112 L98 186 L138 202 L134 424 Q200 438 266 424 L262 202 L302 186 L276 112 Z" fill="#EDE7DD"/>
    <path d="M170 92 L200 126 L230 92" fill="none" stroke="#beb9b1" stroke-width="3"/>
    <path d="M200 126 L200 424" stroke="#c7c2ba" stroke-width="2"/>
    <rect x="150" y="196" width="42" height="46" fill="none" stroke="#ccc7be" stroke-width="2"/>
    <circle cx="200" cy="200" r="3.5" fill="#a6a29b"/>
    <circle cx="200" cy="272" r="3.5" fill="#a6a29b"/>
    <circle cx="200" cy="344" r="3.5" fill="#a6a29b"/></g>
      <g>
    <path d="M200 92 L124 112 L98 186 L138 202 L134 424 Q200 438 266 424 L262 202 L302 186 L276 112 Z" fill="#EDE7DD"/>
    <path d="M170 92 L200 126 L230 92" fill="none" stroke="#beb9b1" stroke-width="3"/>
    <path d="M200 126 L200 424" stroke="#c7c2ba" stroke-width="2"/>
    <rect x="150" y="196" width="42" height="46" fill="none" stroke="#ccc7be" stroke-width="2"/>
    <circle cx="200" cy="200" r="3.5" fill="#a6a29b"/>
    <circle cx="200" cy="272" r="3.5" fill="#a6a29b"/>
    <circle cx="200" cy="344" r="3.5" fill="#a6a29b"/></g>
      <rect width="400" height="533" fill="url(#drapecl4c1x)" opacity=".38" style="mix-blend-mode:multiply"/>
  <rect width="400" height="533" filter="url(#wcl4c1x)" opacity=".13" style="mix-blend-mode:multiply"/>
</svg>